<svg width="31" height="20" viewBox="0 0 31 20" fill="none" xmlns="http://www.w3.org/2000/svg">
<g clip-path="url(#clip0_3041_58096)">
<path d="M29.2286 0H1.77143C0.793096 0 0 0.814028 0 1.81818V18.1818C0 19.186 0.793096 20 1.77143 20H29.2286C30.2069 20 31 19.186 31 18.1818V1.81818C31 0.814028 30.2069 0 29.2286 0Z" fill="white"/>
<path fill-rule="evenodd" clip-rule="evenodd" d="M29.2286 0.833333H1.77143C1.24731 0.833333 0.815789 1.27051 0.815789 1.81818V18.1818C0.815789 18.7295 1.24731 19.1667 1.77143 19.1667H29.2286C29.7527 19.1667 30.1842 18.7295 30.1842 18.1818V1.81818C30.1842 1.27051 29.7527 0.833333 29.2286 0.833333ZM1.77143 0H29.2286C30.2069 0 31 0.814028 31 1.81818V18.1818C31 19.186 30.2069 20 29.2286 20H1.77143C0.793096 20 0 19.186 0 18.1818V1.81818C0 0.814028 0.793096 0 1.77143 0Z" fill="#E1E1E5"/>
<path d="M11.8603 15.1457C14.6745 15.1457 16.9559 12.8419 16.9559 9.99999C16.9559 7.15812 14.6745 4.85433 11.8603 4.85433C9.04604 4.85433 6.76465 7.15812 6.76465 9.99999C6.76465 12.8419 9.04604 15.1457 11.8603 15.1457Z" fill="#F6635F"/>
<path d="M19.1396 15.1457C21.9538 15.1457 24.2352 12.8419 24.2352 9.99999C24.2352 7.15812 21.9538 4.85433 19.1396 4.85433C16.3253 4.85433 14.0439 7.15812 14.0439 9.99999C14.0439 12.8419 16.3253 15.1457 19.1396 15.1457Z" fill="#FFB548"/>
<path d="M15.4998 6.32446C16.4301 7.28622 16.9557 8.61321 16.9557 9.99994C16.9557 11.3867 16.4301 12.7137 15.4998 13.6754C14.5696 12.7137 14.0439 11.3867 14.0439 9.99994C14.0439 8.61321 14.5696 7.28622 15.4998 6.32446Z" fill="#FF8150"/>
</g>
<defs>
<clipPath id="clip0_3041_58096">
<rect width="31" height="20" fill="white"/>
</clipPath>
</defs>
</svg>
