<svg width="24" height="23" viewBox="0 0 24 23" fill="none" xmlns="http://www.w3.org/2000/svg">
<path d="M22.3943 12.1865L21.2846 10.2645C20.9531 9.69025 20.311 9.39263 19.6488 9.50633C19.0619 9.60704 18.4701 9.33261 18.1761 8.82345C17.8821 8.3143 17.9404 7.66458 18.321 7.20669C18.7506 6.69001 18.8139 5.98513 18.4824 5.41091L17.3552 3.45858C16.9211 2.70662 15.9468 2.4534 15.1835 2.89412L2.20111 10.3895C1.43776 10.8302 1.16994 11.8005 1.60408 12.5525L2.73126 14.5048C3.06279 15.0791 3.70487 15.3766 4.3671 15.263C4.95397 15.1623 5.54577 15.4367 5.83973 15.9459C6.13369 16.455 6.07546 17.1048 5.69481 17.5627C5.26527 18.0793 5.20194 18.7842 5.53346 19.3584L6.64314 21.2804C7.07729 22.0324 8.05153 22.2856 8.81487 21.8449L21.7973 14.3495C22.5606 13.9088 22.8284 12.9384 22.3943 12.1865Z" fill="#F4F6F8"/>
<path fill-rule="evenodd" clip-rule="evenodd" d="M17.2459 1.59555C17.4606 1.7571 17.6465 1.96306 17.7882 2.20858L18.07 2.69666L17.204 3.19666L16.9222 2.70858C16.8492 2.58207 16.7542 2.47704 16.6446 2.39455L17.2459 1.59555ZM18.6336 3.67282L18.9154 4.16091C19.0229 4.34716 19.0994 4.54504 19.1445 4.74805L18.1684 4.96517C18.1453 4.86147 18.106 4.75899 18.0494 4.6609L17.7676 4.17282L18.6336 3.67282ZM21.3237 8.52247C21.4769 8.66308 21.6101 8.82822 21.7176 9.01447L21.995 9.49497L21.129 9.99497L20.8516 9.51447C20.795 9.41638 20.7259 9.33109 20.6476 9.25928L21.3237 8.52247ZM22.5499 10.456L22.8273 10.9365C22.969 11.182 23.0545 11.446 23.087 11.7127L22.0944 11.8339C22.0778 11.6978 22.0343 11.563 21.9613 11.4365L21.6839 10.956L22.5499 10.456ZM19.5642 8.01353C19.7746 7.97741 19.985 7.97304 20.1895 7.99869L20.065 8.99092C19.9587 8.97758 19.8472 8.97957 19.7334 8.99911L19.7333 8.99912C19.5383 9.0326 19.3427 9.03535 19.153 9.01023L19.2843 8.01888C19.3759 8.03101 19.4701 8.02967 19.5642 8.01353M18.7055 6.52633C18.842 6.36219 18.951 6.18219 19.031 5.99226ZM19.031 5.99226L18.1095 5.60389ZM18.1095 5.60389C18.0679 5.70269 18.0104 5.79821 17.9366 5.88704ZM22.6591 13.2502C22.4959 13.46 22.2903 13.6422 22.0473 13.7825L21.5836 14.0502L21.0836 13.1842L21.5473 12.9165C21.6766 12.8418 21.7845 12.7458 21.8698 12.6362L22.6591 13.2502ZM14.9335 1.46111C15.1766 1.32076 15.4371 1.2338 15.7004 1.19735L15.8375 2.1879C15.6999 2.20695 15.5629 2.25243 15.4335 2.32713L14.9698 2.59482L14.4698 1.7288L14.9335 1.46111ZM18.7055 6.52635C18.6445 6.59975 18.5962 6.68068 18.5609 6.76605L17.6368 6.38406C17.7099 6.2072 17.81 6.03925 17.9366 5.88706L17.9366 5.88704M18.6091 7.57345C18.6557 7.6542 18.7143 7.72595 18.7821 7.78735L18.1108 8.52857C17.9677 8.39896 17.8429 8.24626 17.7431 8.07345C17.6433 7.90065 17.5735 7.71622 17.5328 7.52748L18.5103 7.31674C18.5296 7.40615 18.5625 7.4927 18.6091 7.57345ZM12.6152 2.79957L13.5425 2.26418L14.0425 3.13021L13.1152 3.66559L12.6152 2.79957ZM20.6563 14.5856L19.729 15.121L19.229 14.2549L20.1563 13.7196L20.6563 14.5856ZM10.7606 3.87033L11.6879 3.33495L12.1879 4.20098L11.2606 4.73636L10.7606 3.87033ZM18.8017 15.6563L17.8743 16.1917L17.3743 15.3257L18.3017 14.7903L18.8017 15.6563ZM8.90596 4.9411L9.83327 4.40572L10.3333 5.27174L9.40596 5.80713L8.90596 4.9411ZM16.947 16.7271L16.0197 17.2625L15.5197 16.3965L16.447 15.8611L16.947 16.7271ZM7.05133 6.01187L7.97865 5.47649L8.47865 6.34251L7.55133 6.8779L7.05133 6.01187ZM15.0924 17.7979L14.1651 18.3333L13.6651 17.4672L14.5924 16.9319L15.0924 17.7979ZM5.19671 7.08264L6.12402 6.54726L6.62402 7.41328L5.69671 7.94866L5.19671 7.08264ZM13.2378 18.8687L12.3105 19.404L11.8105 18.538L12.7378 18.0026L13.2378 18.8687ZM3.34208 8.15341L4.2694 7.61802L4.7694 8.48405L3.84208 9.01943L3.34208 8.15341ZM11.3832 19.9394L10.4558 20.4748L9.95584 19.6088L10.8832 19.0734L11.3832 19.9394ZM5.40672 15.1959C5.3601 15.1151 5.30158 15.0434 5.23378 14.982L5.90506 14.2408C6.04817 14.3704 6.17297 14.5231 6.27274 14.6959C6.37251 14.8687 6.44235 15.0531 6.48304 15.2418L5.5055 15.4526C5.48622 15.3632 5.45334 15.2766 5.40672 15.1959ZM1.95111 8.95649L2.41477 8.68879L2.91477 9.55482L2.45111 9.82251C2.32172 9.89721 2.21382 9.99315 2.12852 10.1028L1.33924 9.48876C1.50244 9.27899 1.70803 9.09683 1.95111 8.95649ZM9.52853 21.0102L9.06487 21.2779C8.82179 21.4182 8.56124 21.5052 8.29797 21.5416L8.16085 20.5511C8.29845 20.532 8.43548 20.4866 8.56487 20.4119L9.02853 20.1442L9.52853 21.0102ZM5.31032 16.243C5.37135 16.1696 5.41961 16.0887 5.4549 16.0033L6.37907 16.3853C6.30597 16.5621 6.20582 16.7301 6.0793 16.8823L5.69703 16.5645L6.07929 16.8823C6.00544 16.9711 5.948 17.0666 5.90636 17.1654L4.98485 16.7771C5.0649 16.5871 5.17386 16.4071 5.31032 16.243ZM4.73157 14.7504C4.63999 14.7383 4.54576 14.7396 4.45167 14.7558L4.3671 14.263L4.45166 14.7558C4.24128 14.7919 4.03091 14.7963 3.82641 14.7706L3.95086 13.7784C4.05724 13.7917 4.16869 13.7897 4.28254 13.7702C4.4776 13.7367 4.67313 13.734 4.86284 13.7591L4.73157 14.7504ZM1.17107 11.8025C1.02932 11.557 0.943913 11.293 0.911332 11.0263L1.90395 10.9051C1.92059 11.0412 1.96406 11.176 2.0371 11.3025L2.31889 11.7906L1.45287 12.2906L1.17107 11.8025ZM6.75245 21.1434C6.5378 20.9819 6.35188 20.7759 6.21013 20.5304L5.93271 20.0499L6.79874 19.5499L7.07616 20.0304C7.1492 20.1569 7.24418 20.262 7.35378 20.3444L6.75245 21.1434ZM2.69216 14.2468C2.53893 14.1062 2.40578 13.9411 2.29825 13.7548L2.01645 13.2667L2.88248 12.7667L3.16427 13.2548C3.2209 13.3529 3.29 13.4382 3.36826 13.51L2.69216 14.2468ZM5.10045 18.6084C4.99292 18.4221 4.91648 18.2243 4.87133 18.0213L5.84747 17.8041C5.87054 17.9078 5.90985 18.0103 5.96648 18.1084L6.2439 18.5889L5.37787 19.0889L5.10045 18.6084Z" fill="#D0D0D0"/>
<path fill-rule="evenodd" clip-rule="evenodd" d="M12.25 6.4L12 6L12.848 5.47L13.098 5.87L12.25 6.4ZM13.25 8L12.75 7.2L13.598 6.67L14.098 7.47L13.25 8ZM14.25 9.6L13.75 8.8L14.598 8.27L15.098 9.07L14.25 9.6ZM15.25 11.2L14.75 10.4L15.598 9.87L16.098 10.67L15.25 11.2ZM16.25 12.8L15.75 12L16.598 11.47L17.098 12.27L16.25 12.8ZM17 14L16.75 13.6L17.598 13.07L17.848 13.47L17 14Z" fill="#D0D0D0"/>
</svg>
